<?xml version="1.0" encoding="utf-8"?>
<!-- Generator: Adobe Illustrator 26.0.1, SVG Export Plug-In . SVG Version: 6.00 Build 0)  -->
<svg version="1.1" id="Layer_1" xmlns="http://www.w3.org/2000/svg" xmlns:xlink="http://www.w3.org/1999/xlink" x="0px" y="0px"
	 viewBox="0 0 1920 1080" style="enable-background:new 0 0 1920 1080;" xml:space="preserve">
<style type="text/css">
	.st0{fill:#EFEFEF;}
	.st1{fill:#A6151F;}
</style>
<path class="st0" d="M1261.4,599.1c4.9,4.9,8.7,13.9,12.9,19.6c12,16.2,21.5,10.2,37.8,14.2c4.4,1.1,8.2,4.4,12.1,4.9
	c4.9,0.6,15,0.4,20.1,0c10.8-0.9,20.7-6.2,28.1-13.9c5.8,3.5,12.4,6.4,19.1,7.6c26.1,4.7,52-10.8,75-21.5c16.7,0.6,33,3.7,49.8,2.8
	c3.8-0.2,8.1-1.8,12-2c7.9-0.4,21.7,1.9,24.3,10.8c3.3,11,4.3,45-4.5,53.3c-4.1,3.8-14.1,8.4-19.8,9c-11.8,1.2-18.1-5.5-28.8-4.9
	c-11.2,0.7-21.4,11.2-31.4,12.7c-2.8,0.5-4.7-0.8-7.4-0.6c-7.8,0.6-17.2,7.6-24.3,7.8c-20.8,0.8-41.3,0.3-62,2.9
	c-16.1,2-20.9-10.4-32.7-16.1c-4.2-2.1-18.4-5.4-23.2-5.8c-16.8-1.4-30.5,16.4-47.8,6.8c-14-7.7-25.9-21.6-38.2-30.8
	c-12.6-9.5-21.6-11.4-32.5-25.5c-16.7-21.8,18.8-50.3,40.2-43.2C1243.1,588,1259.2,596.9,1261.4,599.1L1261.4,599.1z"/>
<path class="st0" d="M1072.5,379.1c8.4-0.7,14.6,1.8,22.7,2.7c18.3,2.1,34.5,3.5,52.7,7.3c11.6,2.5,23.8,3.5,32.8,12.2
	c1.9,1.8,11.4,15.4,11.8,17.3s-2,5-1.9,8.7c0.3,9.2,8.4,15.6,2.9,25.9c-2.6,4.9-16.3,22.9-20.8,25.2c-2.9,1.5-6.3,2.2-9.6,2.5
	c-14.8-1.3-35.6-8.6-49.9-7c-13.4,1.5-25.4,0.6-39-1.2s-43.4-18.8-50.8-30.2c-9.6-14.7-8.6-41,6.7-51.7
	C1036.5,386.4,1064.2,379.9,1072.5,379.1L1072.5,379.1z"/>
<path class="st0" d="M745.6,487.1c10.8,1.2,20.3,3.6,29.9,8.6c11.1,5.8,19.8,11.2,32.1,15.9c29.5,11.3,58.4,22.6,88.2,32.8
	c18.3,6.2,28.7,16.5,45.1,24.9c9,4.6,10.6,4.6,19.2,10.8c9.5,6.8,20.1,8.8,30.1,13.9c4.9,2.5,8.9,6.2,13.5,8.5
	c15,7.8,37.5,12.1,44.9,29c-0.3,1.1-7.4,3.6-9,4.1c-13.5,4.1-32,2.5-44.5-4.5c-3.9-2.2-7.8-6.2-11.6-8.4c-5-2.8-12.6-5.2-17.8-8.2
	c-9.2-5.3-17.6-13.2-27.9-17.1c-12.5-4.7-25.5-2.6-37.1-7.9s-20.8-15-32.9-19.1c-22.3-7.7-30.5-12-51-23c-3.6-1.9-9.6-3.2-12.8-5.2
	c-7-4.5-11.1-16-18-21s-15.6-6.8-23.5-13.5C760.6,505.9,743.6,488.9,745.6,487.1L745.6,487.1z"/>
<path class="st0" d="M653.3,615.3c8.2-1.1,11.6,2,17.9,2.4c4.5,0.3,10.8-1.9,16.9-1.7c13,0.6,42.2,12.4,52.5,20.5
	c3.1,2.5,4.4,6.1,7,9c5.3,5.7,13.3,10.1,20.8,12.2c4.9,1.4,16.5,1.6,19.2,2.8c1.7,0.8,11.5,11,14.5,13.5c4.7,3.7,11.7,8.8,17.1,10.9
	c19.1,7.2,66.5,7,77.2,24.8c2.7,4.5,2.7,6.2-1.5,9.2c-21.7,15.1-49.9-3.2-71.7-0.7c-15.4,1.8-23.6,22.4-43.8,12.6
	c-7-3.4-7.9-8.1-12.5-13.5c-8.6-1.2-17.2,0.3-25.9-0.1c-20.1-1-34.5-7.2-52.2-9.8c-9-1.3-17.9,1.2-27-2c-5.6-2-8.2-6-12.4-8.6
	c-3.5-2.1-15-6.3-16.4-7.6c-1.5-1.5-3.2-7-4.7-9.3c-3-4.4-7.8-9.2-10-14c-5.2-11.3,0.6-27.7,8.7-36.7
	C633,622.5,644.6,616.5,653.3,615.3L653.3,615.3z"/>
<path class="st0" d="M522.3,562.3c3.2-0.5,7.3-0.5,10.5,0c11.5,1.8,15.8,9.7,24.8,15.2c7,4.2,17.9,6.4,22,14c3.7,7,0.5,6.2,0,11.1
	c-0.8,7.8,1.7,16.7-2.2,23.8c-0.9,1.7-2.7,2.5-3.6,4.4c-2.3,5.2-0.2,10.3-8.7,11.3c-10.9,1.3-22.2-0.3-33.1-0.1
	c-11.5,0.3-24.4,5.8-34.3-3.6c-0.5-3.8,1-6.7,0.8-10.7c-1.5-24.3-34.5-17.8-40.9-39.2c0.1-5.2,18.1-7.1,22.5-7.5
	c7.5-0.6,18.9,2.2,24.5-3.5c2-2,2.5-5,4-7C511.6,566.7,517.5,563.1,522.3,562.3L522.3,562.3z"/>
<path class="st0" d="M1561.1,761.5c5.4-0.5,18.8-1.2,22.8,2.7c3.1,3,4.4,13,9,18c3.4,3.7,8.4,4.1,10.3,8.7
	c7.1,16.5-14.9,19-25.4,13.5c-4.8-2.5-6.4-9.8-13-10.1c-8.8-0.4-20.1,9.7-28,5.1c-5.4-3.1-12.6-16.1-12.2-22.3
	c0.8-14.9,12.8-11.4,23.1-12.9C1552.1,763.4,1556.6,761.9,1561.1,761.5L1561.1,761.5z"/>
<path class="st1" d="M814,351.6c5.9-1.1,12.7,0.6,17.8,3.7c4.2,2.6,6.2,6.7,10,10c3.7,3.2,15.5,9,16.2,13.7c0.3,1.8-1.9,4.2-1.7,6.8
	c0.3,5.5,8.5,13.5,2.6,19.6c-6.4,4.9-26.8-7.2-33.7-10.5c-3-1.4-7.6-2.3-10.2-3.8c-4.4-2.5-13.1-13.8-14.4-18.6
	C798.2,363.8,805,353.3,814,351.6L814,351.6z"/>
<path class="st0" d="M345.2,396.5c10.4-0.9,16.1,22.2,29.8,22.5c2.1,0,9.5-2.1,10.5-1.4l22.9,41.1c-8.1,5-5.8,8-7.6,15.3
	c-1.2,4.9-5.5,10.3-7.4,15.6c-4.8,13.6-4.2,27.6-21,33c-6.5,2.1-34.2,1-41.3-0.7c-13.5-3.2-7.8-16.8-8.8-26.2
	c-0.5-4.9-3.2-10.4-3.8-15.2c-0.5-4.5,0.5-9.6-0.2-13.8c-0.5-3.2-2.9-4.9-3-9c-0.3-9.3,10.2-22.8,5.2-33.9c0.5-1.6,4-2.4,5.4-3.6
	C333.8,413.5,332.3,397.6,345.2,396.5L345.2,396.5z"/>
<path class="st0" d="M412.6,317.1c-2.3-3.5,0.1-7.3-0.7-10.7c-1.2-5-7.6-8.2-8.1-13.6c3.4-4.6,1.9-10.1,5.2-14.7
	c5.4-7.3,17.5-6.7,21.3,1.8c0.6,1.3,3,9.4,3.2,10.8C435.1,301.6,424,316.8,412.6,317.1L412.6,317.1z"/>
</svg>
